<svg width="22" height="23" viewBox="0 0 22 23" fill="none" xmlns="http://www.w3.org/2000/svg">
<path d="M3.85547 22.1162C2.73828 22.1162 1.89681 21.8369 1.33105 21.2783C0.765299 20.7269 0.482422 19.8962 0.482422 18.7861V6.41113C0.482422 5.30111 0.765299 4.47038 1.33105 3.91895C1.89681 3.36035 2.73828 3.08105 3.85547 3.08105H15.4033L13.6738 4.81055H3.8877C3.35059 4.81055 2.93522 4.95378 2.6416 5.24023C2.35514 5.52669 2.21191 5.94922 2.21191 6.50781V18.7002C2.21191 19.2588 2.35514 19.6813 2.6416 19.9678C2.93522 20.2471 3.35059 20.3867 3.8877 20.3867H16.4453C16.8105 20.3867 17.1257 20.2471 17.3906 19.9678C17.6556 19.6813 17.7881 19.2588 17.7881 18.7002V9.03223L19.5176 7.30273V18.7861C19.5176 19.8962 19.249 20.7269 18.7119 21.2783C18.182 21.8369 17.4336 22.1162 16.4668 22.1162H3.85547ZM7.76562 15.1553C7.66536 15.1982 7.57227 15.1768 7.48633 15.0908C7.40755 14.9977 7.38965 14.9046 7.43262 14.8115L8.39941 12.792L18.4219 2.76953L19.8936 4.21973L9.86035 14.2422L7.76562 15.1553ZM20.6885 3.43555L19.2168 1.95312L20.001 1.17969C20.18 1.00781 20.3841 0.914714 20.6133 0.900391C20.8496 0.886068 21.0501 0.961263 21.2148 1.12598L21.4619 1.38379C21.6481 1.56283 21.7376 1.77051 21.7305 2.00684C21.7305 2.236 21.641 2.44727 21.4619 2.64062L20.6885 3.43555Z" fill="#FED702"/>
</svg>
